<svg width="120" height="80" viewBox="0 0 120 80" fill="none" xmlns="http://www.w3.org/2000/svg">
<path d="M95.2783 30.4901L95.5005 31.6171L96.6464 31.6964C108.875 32.543 118.5 42.6034 118.5 55C118.5 67.9716 107.972 78.5 95 78.5H30C14.2784 78.5 1.5 65.7216 1.5 50C1.5 35.3234 12.6149 23.2112 26.9086 21.6916L27.7087 21.6065L28.0804 20.8929C34.0827 9.36851 46.1319 1.5 60 1.5C77.4692 1.5 92.0141 13.9291 95.2783 30.4901ZM35 46.5H48.5V65V66.5H50H70H71.5V65V46.5H85H88.6213L86.0607 43.9393L61.0607 18.9393L60 17.8787L58.9393 18.9393L33.9393 43.9393L31.3787 46.5H35Z" stroke="#76A1CC" stroke-width="3"/>
</svg>
